<svg style="display: none"><symbol viewBox="0 0 512 512" id="api"><title>api</title><style>.st0{fill:none;stroke:#062a48;stroke-width:20;stroke-linecap:square;stroke-miterlimit:10}</style><g id="api-Layer_2"><circle class="st0" cx="172.8" cy="256" r="129.8"/><circle class="st0" cx="339.2" cy="256" r="129.8"/><path class="st0" d="M214.1 242.1l60.9-60.4m-57.1 111.4l75.6-75m-58 111.5l60.8-60.3"/></g></symbol><symbol viewBox="0 0 480 480" id="arrow-down"><title>arrow-down</title><path d="M240 0C107.453 0 0 107.453 0 240s107.453 240 240 240 240-107.453 240-240C479.852 107.516 372.484.148 240 0zm0 464C116.29 464 16 363.71 16 240S116.29 16 240 16s224 100.29 224 224c-.14 123.652-100.348 223.86-224 224zm0 0"/><path d="M330.871 265.855L248 334.922V128a8 8 0 00-16 0v206.922l-82.871-69.067a8.007 8.007 0 00-11.274 1.016 8.007 8.007 0 001.016 11.274l96 80c.39.27.809.507 1.242.703.211.164.434.312.664.449.102.047.215.078.328.117A7.83 7.83 0 00240 360a7.87 7.87 0 002.887-.586c.113-.047.226-.07.328-.117.23-.137.453-.285.664-.45a7.936 7.936 0 001.242-.702l96-80a8.007 8.007 0 001.016-11.274 8.007 8.007 0 00-11.274-1.016zm0 0"/></symbol><symbol id="block"><title>block</title><path d="M0 0h48v48H0z" fill="none"/><path d="M24 4C12.95 4 4 12.95 4 24s8.95 20 20 20 20-8.95 20-20S35.05 4 24 4zM8 24c0-8.84 7.16-16 16-16 3.7 0 7.09 1.27 9.8 3.37L11.37 33.8C9.27 31.09 8 27.7 8 24zm16 16c-3.7 0-7.09-1.27-9.8-3.37L36.63 14.2C38.73 16.91 40 20.3 40 24c0 8.84-7.16 16-16 16z"/></symbol><symbol viewBox="0 0 24 24" id="burger"><title>burger</title><path fill="none" stroke="#062a48" stroke-miterlimit="10" stroke-width="2" d="M2 12h20M2 6h20M2 18h20"/></symbol><symbol viewBox="0 0 48 48" id="cabinet-blue"><title>cabinet-blue</title><path d="M24 .125C10.814.125.125 10.814.125 24S10.814 47.875 24 47.875 47.875 37.186 47.875 24 37.186.125 24 .125zm0 43.771C13.012 43.896 4.104 34.988 4.104 24S13.012 4.104 24 4.104 43.896 13.012 43.896 24 34.988 43.896 24 43.896z"/><path d="M25.22 16.234c.572 0 1.097-.202 1.57-.606.469-.404.757-.894.86-1.466.098-.576-.024-1.062-.38-1.466-.354-.408-.818-.61-1.392-.61-.576 0-1.1.202-1.569.61-.474.403-.762.89-.86 1.466-.071.573.066 1.062.403 1.466.338.404.796.606 1.368.606zM29.622 30.4c-.053.075-.104.14-.156.216-.312.396-1.475 1.795-2.984 2.632a.06.06 0 00-.024.014c-.132.07-.267.123-.401.185a3.537 3.537 0 01-.891.188c-.339-.044-.523-.281-.523-.73 0-.371.109-1.104.329-2.205l.253-1.111 1.035-4.968c.168-.846.258-1.316.278-1.409l.226-1.162c.133-.719.201-1.194.201-1.426 0-.444-.11-.781-.287-1.055a.613.613 0 00-.066-.122c-.026-.032-.054-.06-.082-.089-.031-.034-.046-.063-.088-.098-.441-.36-.853-.464-1.137-.487l.005-.008s-1.867-.141-4.633 1.682c-.04.026-.064.045-.101.07-.749.474-1.348.949-1.763 1.332a5.178 5.178 0 00-.745.762l-.008.011.001-.001c-.236.311-.36.593-.36.843 0 .197.16.394.476.591 0 0 1.188-1.534 3.185-2.532.15-.065.534-.224.872-.312.157-.036.455-.064.645.093.136.142.226.339.226.646 0 .279-.042.618-.127 1.023l-.202.957-.251 1.196-.986 4.728c-.504 2.442-.757 3.903-.757 4.379 0 1.123.615 1.685 1.843 1.685.557 0 1.129-.101 1.716-.281.004 0 .006.002.01.004l.116-.043c.097-.031.195-.068.292-.105 2.771-1.031 4.595-3.108 5.146-3.804a3.546 3.546 0 00.181-.239h-.002c.14-.206.217-.377.217-.505-.002-.179-.233-.358-.679-.545z"/></symbol><symbol viewBox="0 0 16 16" id="cabinet"><title>cabinet</title><path d="M8 2C4.69 2 2 4.69 2 8s2.69 6 6 6 6-2.69 6-6-2.69-6-6-6zm0 11c-2.76 0-5-2.24-5-5s2.24-5 5-5 5 2.24 5 5-2.24 5-5 5z"/><path d="M8 6.85c-.28 0-.5.22-.5.5v3.4c0 .28.22.5.5.5s.5-.22.5-.5v-3.4c0-.27-.22-.5-.5-.5zm.01-2.05c-.26-.02-.5.25-.51.52v.08c0 .27.21.47.49.48H8c.27 0 .49-.24.5-.5v-.11c0-.29-.21-.47-.49-.47z"/></symbol><symbol viewBox="0 0 32 32" id="done"><title>done</title><path d="M16 1C7.729 1 1 7.729 1 16s6.729 15 15 15 15-6.729 15-15S24.271 1 16 1zm0 28C8.832 29 3 23.168 3 16S8.832 3 16 3s13 5.832 13 13-5.832 13-13 13z"/><path d="M23.317 10.27l-10.004 9.36-4.629-4.332a1 1 0 00-1.366 1.46l5.313 4.971c.192.18.438.27.683.27s.491-.09.67l10.688-10a1 1 0 00.047-1.413c.394-1.343-.24-1.364-.642-.986z"/></symbol><symbol viewBox="0 0 512 512" id="extract"><title>extract</title><g data-name="1"><path d="M230 455.73A176 176 0 0154.13 279.86C54.14 182.89 133 104 230 104a15 15 0 0115 15v145.86h145.87a15 15 0 0115 15c0 96.97-78.87 175.87-175.87 175.87zm-15-321c-73.41 7.53-130.86 69.73-130.87 145.1A146 146 0 00230 425.73c75.37 0 137.57-57.45 145.1-130.87H230a15 15 0 01-15-15z"/><path d="M441.13 248.63h-164.9a15 15 0 01-15-15V68.73a15 15 0 0115-15c99.2 0 179.9 80.71 179.9 179.9a15 15 0 01-15 15zm-149.9-30h134.16A150.16 150.16 0 00291.23 84.48z"/></g></symbol><symbol viewBox="0 0 32 32" id="logout"><title>logout</title><path class="cls-1" d="M15.92 16h13"/><path d="M23.93 25v3h-16V4h16v3h2V3a1 1 0 00-1-1h-18a1 1 0 00-1 1v26a1 1 0 001 1h18a1 1 0 001-1v-4z"/><path class="cls-1" d="M28.92 16l-4 4m4-4l-4-4m0-3.91v-2m0 19.91v-2"/></symbol><symbol viewBox="0 0 24 24" id="newpayment"><title>newpayment</title><circle cx="12" cy="12" r="10"/><path d="M12 8v8m-4-4h8"/></symbol><symbol viewBox="0 0 34 34" id="questions"><title>questions</title><path d="M17.123 9.2c-1.44 0-2.642.503-3.604 1.32S11.994 12 11.832 14h2.937c.064-1 .303-1.231.716-1.611s.926-.618 1.541-.618c.615 0 1.116.174 1.504.571.389.396.583.882.583 1.48s-.187 1.094-.558 1.499l-1.772 1.769c-.518.518-.626.934-.78 1.249-.154.315-.003.794-.003 1.441V21h2v-.832c0-.646.289-1.148.581-1.504.112-.129.333-.287.521-.473.186-.187.448-.405.715-.656.267-.25.5-.457.662-.619.161-.161.404-.437.712-.825.533-.647.805-1.456.805-2.427 0-1.408-.45-2.503-1.356-3.289-.908-.783-2.077-1.175-3.517-1.175zm-.183 12.945c-.51 0-.946.179-1.311.534a1.72 1.72 0 00-.546 1.274c0 .493.186.914.558 1.262a1.87 1.87 0 001.322.521c.51 0 .947-.178 1.311-.533.363-.356.546-.781.546-1.274s-.187-.914-.559-1.263a1.862 1.862 0 00-1.321-.521z"/><path d="M17 0C7.611 0 0 7.611 0 17s7.611 17 17 17 17-7.611 17-17S26.389 0 17 0zm0 31C9.268 31 3 24.732 3 17S9.268 3 17 3s14 6.268 14 14-6.268 14-14 14z"/></symbol><symbol viewBox="0 0 26 26" id="share"><title>share</title><path d="M20.875 8.875a4.107 4.107 0 00-3.277 1.648L9.071 6.259a4.05 4.05 0 00.179-1.134C9.25 2.851 7.4 1 5.125 1S1 2.85 1 5.125 2.85 9.25 5.125 9.25a4.107 4.107 0 003.277-1.648l8.527 4.263A4.069 4.069 0 0016.75 13c0 .396.074.772.179 1.134l-8.527 4.264a4.107 4.107 0 00-3.277-1.648C2.851 16.75 1 18.6 1 20.875S2.85 25 5.125 25s4.125-1.85 4.125-4.125c0-.396-.074-.772-.179-1.135l8.527-4.263a4.107 4.107 0 003.277 1.648C23.149 17.125 25 15.275 25 13s-1.85-4.125-4.125-4.125zM5.125 7.75C3.678 7.75 2.5 6.572 2.5 5.125S3.678 2.5 5.125 2.5 7.75 3.678 7.75 5.125 6.572 7.75 5.125 7.75zm0 15.75c-1.447 0-2.625-1.178-2.625-2.625s1.178-2.625 2.625-2.625 2.625 1.178 2.625 2.625S6.572 23.5 5.125 23.5zm15.75-7.875c-1.447 0-2.625-1.178-2.625-2.625s1.178-2.625 2.625-2.625S23.5 11.553 23.5 13s-1.178 2.625-2.625 2.625z"/></symbol><symbol viewBox="0 0 26 26" id="tariffs"><title>tariffs</title><path d="M13 1C6.383 1 1 6.383 1 13s5.383 12 12 12 12-5.383 12-12S19.617 1 13 1zm0 22.5C7.21 23.5 2.5 18.79 2.5 13S7.21 2.5 13 2.5 23.5 7.21 23.5 13 18.79 23.5 13 23.5z"/><path d="M13.271 5.875h-3.05a.75.75 0 00-.75.75v5.625h-.91a.75.75 0 000 1.5h.91v1h-.91a.75.75 0 000 1.5h.91v3.125a.75.75 0 001.5 0V16.25h2.86a.75.75 0 000-1.5h-2.86v-1h2.3c2.711 0 4.917-1.767 4.917-3.938s-2.206-3.937-4.917-3.937zm0 6.375h-2.3V7.375h2.3c1.884 0 3.417 1.094 3.417 2.438s-1.533 2.437-3.417 2.437z"/></symbol></svg>