<svg height="36" fill="#4ea96a" viewBox="0 0 480 480" width="36" xmlns="http://www.w3.org/2000/svg"><path d="M240 0C107.453 0 0 107.453 0 240s107.453 240 240 240 240-107.453 240-240C479.852 107.516 372.484.148 240 0zm0 464C116.29 464 16 363.71 16 240S116.29 16 240 16s224 100.29 224 224c-.14 123.652-100.348 223.86-224 224zm0 0"/><path d="M330.871 265.855L248 334.922V128a8 8 0 00-16 0v206.922l-82.871-69.067a8.007 8.007 0 00-11.274 1.016 8.007 8.007 0 001.016 11.274l96 80c.39.27.809.507 1.242.703.211.164.434.312.664.449.102.047.215.078.328.117A7.83 7.83 0 00240 360a7.87 7.87 0 002.887-.586c.113-.047.226-.07.328-.117.23-.137.453-.285.664-.45a7.936 7.936 0 001.242-.702l96-80a8.007 8.007 0 001.016-11.274 8.007 8.007 0 00-11.274-1.016zm0 0"/></svg>