<svg fill="#062a48" width="29" height="29" viewBox="0 0 48 48" xmlns="http://www.w3.org/2000/svg"><path d="M24 .125C10.814.125.125 10.814.125 24S10.814 47.875 24 47.875 47.875 37.186 47.875 24 37.186.125 24 .125zm0 43.771C13.012 43.896 4.104 34.988 4.104 24S13.012 4.104 24 4.104 43.896 13.012 43.896 24 34.988 43.896 24 43.896z"/><path d="M25.22 16.234c.572 0 1.097-.202 1.57-.606.469-.404.757-.894.86-1.466.098-.576-.024-1.062-.38-1.466-.354-.408-.818-.61-1.392-.61-.576 0-1.1.202-1.569.61-.474.403-.762.89-.86 1.466-.071.573.066 1.062.403 1.466.338.404.796.606 1.368.606zM29.622 30.4c-.053.075-.104.14-.156.216-.312.396-1.475 1.795-2.984 2.632a.06.06 0 00-.024.014c-.132.07-.267.123-.401.185a3.537 3.537 0 01-.891.188c-.339-.044-.523-.281-.523-.73 0-.371.109-1.104.329-2.205l.253-1.111 1.035-4.968c.168-.846.258-1.316.278-1.409l.226-1.162c.133-.719.201-1.194.201-1.426 0-.444-.11-.781-.287-1.055a.613.613 0 00-.066-.122c-.026-.032-.054-.06-.082-.089-.031-.034-.046-.063-.088-.098-.441-.36-.853-.464-1.137-.487l.005-.008s-1.867-.141-4.633 1.682c-.04.026-.064.045-.101.07-.749.474-1.348.949-1.763 1.332a5.178 5.178 0 00-.745.762l-.008.011.001-.001c-.236.311-.36.593-.36.843 0 .197.16.394.476.591 0 0 1.188-1.534 3.185-2.532.15-.065.534-.224.872-.312.157-.036.455-.064.645.093.136.142.226.339.226.646 0 .279-.042.618-.127 1.023l-.202.957-.251 1.196-.986 4.728c-.504 2.442-.757 3.903-.757 4.379 0 1.123.615 1.685 1.843 1.685.557 0 1.129-.101 1.716-.281.004 0 .006.002.01.004l.116-.043c.097-.031.195-.068.292-.105 2.771-1.031 4.595-3.108 5.146-3.804a3.546 3.546 0 00.181-.239h-.002c.14-.206.217-.377.217-.505-.002-.179-.233-.358-.679-.545z"/></svg>