<svg fill="#062a48" width="36" height="36" viewBox="0 0 512 512" xmlns="http://www.w3.org/2000/svg"><g data-name="1"><path d="M230 455.73A176 176 0 0154.13 279.86C54.14 182.89 133 104 230 104a15 15 0 0115 15v145.86h145.87a15 15 0 0115 15c0 96.97-78.87 175.87-175.87 175.87zm-15-321c-73.41 7.53-130.86 69.73-130.87 145.1A146 146 0 00230 425.73c75.37 0 137.57-57.45 145.1-130.87H230a15 15 0 01-15-15z"/><path d="M441.13 248.63h-164.9a15 15 0 01-15-15V68.73a15 15 0 0115-15c99.2 0 179.9 80.71 179.9 179.9a15 15 0 01-15 15zm-149.9-30h134.16A150.16 150.16 0 00291.23 84.48z"/></g></svg>