<svg fill="#fff" width="27" height="27" viewBox="0 0 26 26" xmlns="http://www.w3.org/2000/svg"><path d="M20.875 8.875a4.107 4.107 0 00-3.277 1.648L9.071 6.259a4.05 4.05 0 00.179-1.134C9.25 2.851 7.4 1 5.125 1S1 2.85 1 5.125 2.85 9.25 5.125 9.25a4.107 4.107 0 003.277-1.648l8.527 4.263A4.069 4.069 0 0016.75 13c0 .396.074.772.179 1.134l-8.527 4.264a4.107 4.107 0 00-3.277-1.648C2.851 16.75 1 18.6 1 20.875S2.85 25 5.125 25s4.125-1.85 4.125-4.125c0-.396-.074-.772-.179-1.135l8.527-4.263a4.107 4.107 0 003.277 1.648C23.149 17.125 25 15.275 25 13s-1.85-4.125-4.125-4.125zM5.125 7.75C3.678 7.75 2.5 6.572 2.5 5.125S3.678 2.5 5.125 2.5 7.75 3.678 7.75 5.125 6.572 7.75 5.125 7.75zm0 15.75c-1.447 0-2.625-1.178-2.625-2.625s1.178-2.625 2.625-2.625 2.625 1.178 2.625 2.625S6.572 23.5 5.125 23.5zm15.75-7.875c-1.447 0-2.625-1.178-2.625-2.625s1.178-2.625 2.625-2.625S23.5 11.553 23.5 13s-1.178 2.625-2.625 2.625z"/></svg>