<svg fill="#062a48" width="31" height="31" viewBox="0 0 26 26" xmlns="http://www.w3.org/2000/svg"><path d="M13 1C6.383 1 1 6.383 1 13s5.383 12 12 12 12-5.383 12-12S19.617 1 13 1zm0 22.5C7.21 23.5 2.5 18.79 2.5 13S7.21 2.5 13 2.5 23.5 7.21 23.5 13 18.79 23.5 13 23.5z"/><path d="M13.271 5.875h-3.05a.75.75 0 00-.75.75v5.625h-.91a.75.75 0 000 1.5h.91v1h-.91a.75.75 0 000 1.5h.91v3.125a.75.75 0 001.5 0V16.25h2.86a.75.75 0 000-1.5h-2.86v-1h2.3c2.711 0 4.917-1.767 4.917-3.938s-2.206-3.937-4.917-3.937zm0 6.375h-2.3V7.375h2.3c1.884 0 3.417 1.094 3.417 2.438s-1.533 2.437-3.417 2.437z"/></svg>